<svg viewBox="0 0 50 30" width="50" height="30" xmlns="http://www.w3.org/2000/svg"><g fill-rule="evenodd"><path fill="#FF5F00" d="M25.01 10.15c2.37 0 4.54.85 6.2 2.27a9.88 9.88 0 000 15.15c-1.66 1.42-3.83 2.28-6.2 2.28a9.88 9.88 0 01-6.2-2.28 9.88 9.88 0 010-15.15c1.66-1.42 3.83-2.27 6.2-2.27z"/><path fill="#EB001B" d="M15.11 10.15a9.88 9.88 0 00-6.2 2.27 9.88 9.88 0 000 15.15c1.66 1.42 3.83 2.28 6.2 2.28s4.54-.86 6.2-2.28a9.88 9.88 0 000-15.15c-1.66-1.42-3.83-2.27-6.2-2.27z"/><path fill="#F79E1B" d="M34.89 10.15c-2.37 0-4.54.85-6.2 2.27a9.88 9.88 0 010 15.15c1.66 1.42 3.83 2.28 6.2 2.28a9.88 9.88 0 006.2-2.28 9.88 9.88 0 000-15.15c-1.66-1.42-3.83-2.27-6.2-2.27z"/></g></svg>
