<svg viewBox="0 0 50 16" width="50" height="16" xmlns="http://www.w3.org/2000/svg"><path fill="#ffffff" d="M21.574 0l-1.393 9.48H17.2L18.59 0h2.984zm8.682 9.297c-.015-2.022-2.185-2.124-2.213-3.03-.01-.274.26-.574.802-.656.27-.04.1.002.825-.018L30.2 3.65c-.482-.178-1.545-.316-2.585-.316-2.88 0-4.912 1.548-4.93 3.766-.02 1.636 1.458 2.548 2.568 3.1 1.134.562 1.516.923 1.513 1.424-.006.772-.92 1.127-1.776 1.127-1.258 0-1.928-.198-2.955-.662l-.415-.195-.425 2.668c.73.344 2.083.633 3.488.647 3.05 0 5.06-1.523 5.08-3.896.002-.047 0-.095-.002-.143l-.004.083zM14.512 0l-2.316 6.368L11.02.484c-.113-.396-.44-.48-.75-.484H5.32L5.27.234c1.07.23 2.29.697 3.03 1.155.45.28.577.534.698 1.055L10.97 9.48h3.1l4.63-9.48h-4.188zm22.42 9.48h2.86l-2.67-9.48h-2.394c-.452 0-.82.264-1.003.682l-5.632 8.798h3.048s.5-.138.614-.17h3.708c.088.04.353.17.353.17zm-3.415-2.584l1.503-4.12 1.034 3.79c-.004-.002-2.537.33-2.537.33z"/></svg>
